<svg xmlns="http://www.w3.org/2000/svg" xmlns:xlink="http://www.w3.org/1999/xlink" contentStyleType="text/css" data-diagram-type="ACTIVITY" height="1354px" preserveAspectRatio="none" style="width:944px;height:1354px;background:#FFFFFF;" version="1.1" viewBox="0 0 944 1354" width="944px" zoomAndPan="magnify"><?plantuml 1.2026.5?><defs/><g><g class="title" data-source-line="9"><text fill="#000000" font-family="sans-serif" font-size="14" font-weight="700" lengthAdjust="spacing" textLength="590.6865" x="176.0015" y="33.5352">Anexo D &#8212; Flujo de Procesos: del registro de la operaci&#243;n al reporte de utilidades</text></g><rect fill="none" height="21.1992" style="stroke:none;stroke-width:1;" width="897.6895" x="20" y="54.7852"/><ellipse cx="236.0938" cy="90.9844" fill="#222222" rx="10" ry="10" style="stroke:#222222;stroke-width:1;"/><rect fill="#FEFEFE" height="34.1328" rx="12.5" ry="12.5" style="stroke:#333333;stroke-width:0.5;" width="239.3867" x="116.4004" y="120.9844"/><text fill="#000000" font-family="sans-serif" font-size="12" lengthAdjust="spacing" textLength="219.3867" x="126.4004" y="142.5859">Iniciar sesi&#243;n y seleccionar lote activo</text><rect fill="#FEFEFE" height="48.2656" rx="12.5" ry="12.5" style="stroke:#333333;stroke-width:0.5;" width="184.0391" x="26" y="219.1172"/><text fill="#000000" font-family="sans-serif" font-size="12" lengthAdjust="spacing" textLength="146.127" x="36" y="240.7188">Registrar recibo de gasto</text><text fill="#000000" font-family="sans-serif" font-size="12" lengthAdjust="spacing" textLength="164.0391" x="36" y="254.8516">(proveedor, concepto, valor)</text><rect fill="#FEFEFE" height="48.2656" rx="12.5" ry="12.5" style="stroke:#333333;stroke-width:0.5;" width="190.7539" x="258.791" y="219.1172"/><text fill="#000000" font-family="sans-serif" font-size="12" lengthAdjust="spacing" textLength="102.6152" x="268.791" y="240.7188">Registrar cosecha</text><text fill="#000000" font-family="sans-serif" font-size="12" lengthAdjust="spacing" textLength="170.7539" x="268.791" y="254.8516">(cargas, kg, precio por carga)</text><rect fill="#FEFEFE" height="34.1328" rx="12.5" ry="12.5" style="stroke:#333333;stroke-width:0.5;" width="175.8125" x="148.1875" y="741.0557"/><text fill="#000000" font-family="sans-serif" font-size="12" lengthAdjust="spacing" textLength="155.8125" x="158.1875" y="762.6572">Solicitar reporte / consulta</text><polygon fill="#F5F5F5" points="183.7417,1110.8291,288.4458,1110.8291,300.4458,1122.8291,288.4458,1134.8291,183.7417,1134.8291,171.7417,1122.8291,183.7417,1110.8291" style="stroke:#333333;stroke-width:0.5;stroke-linejoin:miter;stroke-miterlimit:10;"/><text fill="#000000" font-family="sans-serif" font-size="11" lengthAdjust="spacing" textLength="104.7041" x="183.7417" y="1126.9863">&#191;Formato de salida?</text><text fill="#000000" font-family="sans-serif" font-size="11" lengthAdjust="spacing" textLength="41.6045" x="130.1372" y="1120.5088">Pantalla</text><text fill="#000000" font-family="sans-serif" font-size="11" lengthAdjust="spacing" textLength="63.4756" x="300.4458" y="1120.5088">Exportaci&#243;n</text><rect fill="#FEFEFE" height="48.2656" rx="12.5" ry="12.5" style="stroke:#333333;stroke-width:0.5;" width="196.4258" x="27.8735" y="1154.8291"/><text fill="#000000" font-family="sans-serif" font-size="12" lengthAdjust="spacing" textLength="103.2598" x="37.8735" y="1176.4307">Visualizar reporte</text><text fill="#000000" font-family="sans-serif" font-size="12" lengthAdjust="spacing" textLength="176.4258" x="37.8735" y="1190.5635">(/reportes, /reportes/semana)</text><rect fill="#FEFEFE" height="34.1328" rx="12.5" ry="12.5" style="stroke:#333333;stroke-width:0.5;" width="203.6035" x="244.2993" y="1223.0947"/><text fill="#000000" font-family="sans-serif" font-size="12" lengthAdjust="spacing" textLength="183.6035" x="254.2993" y="1244.6963">Descargar reporte de utilidades</text><polygon fill="#F5F5F5" points="236.0938,1267.2275,248.0938,1279.2275,236.0938,1291.2275,224.0938,1279.2275,236.0938,1267.2275" style="stroke:#333333;stroke-width:0.5;stroke-linejoin:miter;stroke-miterlimit:10;"/><ellipse cx="236.0938" cy="1322.2275" fill="none" rx="11" ry="11" style="stroke:#222222;stroke-width:1;"/><ellipse cx="236.0938" cy="1322.2275" fill="#222222" rx="6" ry="6" style="stroke:#222222;stroke-width:1;"/><line style="stroke:#000000;stroke-width:1.5;" x1="20" x2="20" y1="54.7852" y2="1333.2275"/><polygon fill="#F5F5F5" points="641.3171,175.1172,747.2083,175.1172,759.2083,187.1172,747.2083,199.1172,641.3171,199.1172,629.3171,187.1172,641.3171,175.1172" style="stroke:#333333;stroke-width:0.5;stroke-linejoin:miter;stroke-miterlimit:10;"/><text fill="#000000" font-family="sans-serif" font-size="11" lengthAdjust="spacing" textLength="105.8911" x="641.3171" y="191.2744">&#191;Tipo de operaci&#243;n?</text><text fill="#000000" font-family="sans-serif" font-size="11" lengthAdjust="spacing" textLength="85.3682" x="543.949" y="184.7969">Gasto / Compra</text><text fill="#000000" font-family="sans-serif" font-size="11" lengthAdjust="spacing" textLength="116.4883" x="759.2083" y="184.7969">Producci&#243;n / Cosecha</text><rect fill="#FEFEFE" height="48.2656" rx="12.5" ry="12.5" style="stroke:#333333;stroke-width:0.5;" width="174.7168" x="488.8301" y="287.3828"/><text fill="#000000" font-family="sans-serif" font-size="12" lengthAdjust="spacing" textLength="154.7168" x="498.8301" y="308.9844">Calcular retenci&#243;n (rte_fte)</text><text fill="#000000" font-family="sans-serif" font-size="12" lengthAdjust="spacing" textLength="83.4785" x="498.8301" y="323.1172">y neto a pagar</text><rect fill="#FEFEFE" height="48.2656" rx="12.5" ry="12.5" style="stroke:#333333;stroke-width:0.5;" width="233.2871" x="459.5449" y="355.6484"/><text fill="#000000" font-family="sans-serif" font-size="12" lengthAdjust="spacing" textLength="213.2871" x="469.5449" y="377.25">Validar contra l&#237;mite de gasto por ha</text><text fill="#000000" font-family="sans-serif" font-size="12" lengthAdjust="spacing" textLength="132.8965" x="469.5449" y="391.3828">(MAX_GASTO_POR_HA)</text><rect fill="#FEFEFE" height="34.1328" rx="12.5" ry="12.5" style="stroke:#333333;stroke-width:0.5;" width="173.8613" x="489.2578" y="472.3916"/><text fill="#000000" font-family="sans-serif" font-size="12" lengthAdjust="spacing" textLength="153.8613" x="499.2578" y="493.9932">Marcar alerta de sobregiro</text><polygon fill="#F5F5F5" points="511.4802,423.9141,640.8967,423.9141,652.8967,435.9141,640.8967,447.9141,511.4802,447.9141,499.4802,435.9141,511.4802,423.9141" style="stroke:#333333;stroke-width:0.5;stroke-linejoin:miter;stroke-miterlimit:10;"/><text fill="#000000" font-family="sans-serif" font-size="11" lengthAdjust="spacing" textLength="8.7871" x="580.1885" y="458.5488">s&#237;</text><text fill="#000000" font-family="sans-serif" font-size="11" lengthAdjust="spacing" textLength="129.4165" x="511.4802" y="440.0713">&#191;Excede el presupuesto?</text><text fill="#000000" font-family="sans-serif" font-size="11" lengthAdjust="spacing" textLength="13.5835" x="652.8967" y="433.5938">no</text><polygon fill="#F5F5F5" points="576.1885,526.5244,588.1885,538.5244,576.1885,550.5244,564.1885,538.5244,576.1885,526.5244" style="stroke:#333333;stroke-width:0.5;stroke-linejoin:miter;stroke-miterlimit:10;"/><rect fill="#FEFEFE" height="48.2656" rx="12.5" ry="12.5" style="stroke:#333333;stroke-width:0.5;" width="163.2852" x="494.5459" y="570.5244"/><text fill="#000000" font-family="sans-serif" font-size="12" lengthAdjust="spacing" textLength="143.2852" x="504.5459" y="592.126">Guardar en tabla recibos</text><text fill="#000000" font-family="sans-serif" font-size="12" lengthAdjust="spacing" textLength="98.7891" x="504.5459" y="606.2588">(asociado al lote)</text><rect fill="#FEFEFE" height="48.2656" rx="12.5" ry="12.5" style="stroke:#333333;stroke-width:0.5;" width="199.0098" x="712.832" y="287.3828"/><text fill="#000000" font-family="sans-serif" font-size="12" lengthAdjust="spacing" textLength="179.0098" x="722.832" y="308.9844">Calcular valor_total de la venta</text><text fill="#000000" font-family="sans-serif" font-size="12" lengthAdjust="spacing" textLength="134.5957" x="722.832" y="323.1172">(cargas x precio_carga)</text><rect fill="#FEFEFE" height="34.1328" rx="12.5" ry="12.5" style="stroke:#333333;stroke-width:0.5;" width="173.6914" x="725.4912" y="355.6484"/><text fill="#000000" font-family="sans-serif" font-size="12" lengthAdjust="spacing" textLength="153.6914" x="735.4912" y="377.25">Guardar en tabla cosechas</text><polygon fill="#F5F5F5" points="694.2627,628.79,706.2627,640.79,694.2627,652.79,682.2627,640.79,694.2627,628.79" style="stroke:#333333;stroke-width:0.5;stroke-linejoin:miter;stroke-miterlimit:10;"/><rect fill="#FEFEFE" height="48.2656" rx="12.5" ry="12.5" style="stroke:#333333;stroke-width:0.5;" width="201.8281" x="593.3486" y="672.79"/><text fill="#000000" font-family="sans-serif" font-size="12" lengthAdjust="spacing" textLength="181.8281" x="603.3486" y="694.3916">Actualizar presupuesto del lote</text><text fill="#000000" font-family="sans-serif" font-size="12" lengthAdjust="spacing" textLength="110.0508" x="603.3486" y="708.5244">(recargas - gastos)</text><rect fill="#FEFEFE" height="34.1328" rx="12.5" ry="12.5" style="stroke:#333333;stroke-width:0.5;" width="208.7832" x="589.8711" y="795.1885"/><text fill="#000000" font-family="sans-serif" font-size="12" lengthAdjust="spacing" textLength="188.7832" x="599.8711" y="816.79">Consolidar movimientos del lote</text><rect fill="#555555" height="6" rx="2.5" ry="2.5" style="stroke:#555555;stroke-width:1;" width="389.0332" x="499.7461" y="849.3213"/><rect fill="#FEFEFE" height="48.2656" rx="12.5" ry="12.5" style="stroke:#333333;stroke-width:0.5;" width="163.3262" x="513.7461" y="875.3213"/><text fill="#000000" font-family="sans-serif" font-size="12" lengthAdjust="spacing" textLength="90.0469" x="523.7461" y="896.9229">Sumar ingresos</text><text fill="#000000" font-family="sans-serif" font-size="12" lengthAdjust="spacing" textLength="143.3262" x="523.7461" y="911.0557">(valor_total de cosechas)</text><rect fill="#FEFEFE" height="48.2656" rx="12.5" ry="12.5" style="stroke:#333333;stroke-width:0.5;" width="169.707" x="705.0723" y="875.3213"/><text fill="#000000" font-family="sans-serif" font-size="12" lengthAdjust="spacing" textLength="85.8164" x="715.0723" y="896.9229">Sumar egresos</text><text fill="#000000" font-family="sans-serif" font-size="12" lengthAdjust="spacing" textLength="149.707" x="715.0723" y="911.0557">(neto_a_pagar de recibos)</text><rect fill="#555555" height="6" rx="2.5" ry="2.5" style="stroke:#555555;stroke-width:1;" width="389.0332" x="499.7461" y="943.5869"/><rect fill="#FEFEFE" height="52.9766" rx="12.5" ry="12.5" style="stroke:#333333;stroke-width:0.5;" width="176.8828" x="605.8213" y="969.5869"/><text fill="#000000" font-family="sans-serif" font-size="12" lengthAdjust="spacing" textLength="94.8691" x="615.8213" y="991.1885">Calcular utilidad</text><text fill="#000000" font-family="sans-serif" font-size="16" font-weight="700" lengthAdjust="spacing" textLength="156.8828" x="615.8213" y="1009.1885">ingresos - egresos</text><rect fill="#FEFEFE" height="48.2656" rx="12.5" ry="12.5" style="stroke:#333333;stroke-width:0.5;" width="224.4512" x="582.0371" y="1042.5635"/><text fill="#000000" font-family="sans-serif" font-size="12" lengthAdjust="spacing" textLength="118.1426" x="592.0371" y="1064.165">Calcular indicadores</text><text fill="#000000" font-family="sans-serif" font-size="12" lengthAdjust="spacing" textLength="204.4512" x="592.0371" y="1078.2979">(gasto/ha, cargas/ha, rendimiento)</text><rect fill="#FEFEFE" height="48.2656" rx="12.5" ry="12.5" style="stroke:#333333;stroke-width:0.5;" width="130.4844" x="739.0278" y="1154.8291"/><text fill="#000000" font-family="sans-serif" font-size="12" lengthAdjust="spacing" textLength="91.916" x="749.0278" y="1176.4307">Generar archivo</text><text fill="#000000" font-family="sans-serif" font-size="12" lengthAdjust="spacing" textLength="110.4844" x="749.0278" y="1190.5635">(PDF / Excel / TXT)</text><line style="stroke:#000000;stroke-width:1.5;" x1="453.5449" x2="453.5449" y1="54.7852" y2="1333.2275"/><line style="stroke:#000000;stroke-width:1.5;" x1="915.8418" x2="915.8418" y1="54.7852" y2="1333.2275"/><line style="stroke:#181818;stroke-width:1;" x1="236.0938" x2="236.0938" y1="100.9844" y2="120.9844"/><polygon fill="#181818" points="232.0938,110.9844,236.0938,120.9844,240.0938,110.9844,236.0938,114.9844" style="stroke:#181818;stroke-width:1;stroke-linejoin:miter;stroke-miterlimit:10;"/><line style="stroke:#181818;stroke-width:1;" x1="171.7417" x2="126.0864" y1="1122.8291" y2="1122.8291"/><line style="stroke:#181818;stroke-width:1;" x1="126.0864" x2="126.0864" y1="1122.8291" y2="1154.8291"/><polygon fill="#181818" points="122.0864,1144.8291,126.0864,1154.8291,130.0864,1144.8291,126.0864,1148.8291" style="stroke:#181818;stroke-width:1;stroke-linejoin:miter;stroke-miterlimit:10;"/><line style="stroke:#181818;stroke-width:1;" x1="126.0864" x2="126.0864" y1="1203.0947" y2="1279.2275"/><line style="stroke:#181818;stroke-width:1;" x1="126.0864" x2="224.0938" y1="1279.2275" y2="1279.2275"/><polygon fill="#181818" points="214.0938,1275.2275,224.0938,1279.2275,214.0938,1283.2275,218.0938,1279.2275" style="stroke:#181818;stroke-width:1;stroke-linejoin:miter;stroke-miterlimit:10;"/><line style="stroke:#181818;stroke-width:1;" x1="346.1011" x2="346.1011" y1="1257.2275" y2="1279.2275"/><line style="stroke:#181818;stroke-width:1;" x1="346.1011" x2="248.0938" y1="1279.2275" y2="1279.2275"/><polygon fill="#181818" points="258.0938,1275.2275,248.0938,1279.2275,258.0938,1283.2275,254.0938,1279.2275" style="stroke:#181818;stroke-width:1;stroke-linejoin:miter;stroke-miterlimit:10;"/><line style="stroke:#181818;stroke-width:1;" x1="236.0938" x2="236.0938" y1="1291.2275" y2="1311.2275"/><polygon fill="#181818" points="232.0938,1301.2275,236.0938,1311.2275,240.0938,1301.2275,236.0938,1305.2275" style="stroke:#181818;stroke-width:1;stroke-linejoin:miter;stroke-miterlimit:10;"/><line style="stroke:#181818;stroke-width:1;" x1="576.1885" x2="576.1885" y1="335.6484" y2="355.6484"/><polygon fill="#181818" points="572.1885,345.6484,576.1885,355.6484,580.1885,345.6484,576.1885,349.6484" style="stroke:#181818;stroke-width:1;stroke-linejoin:miter;stroke-miterlimit:10;"/><line style="stroke:#181818;stroke-width:1;" x1="576.1885" x2="576.1885" y1="447.9141" y2="472.3916"/><polygon fill="#181818" points="572.1885,462.3916,576.1885,472.3916,580.1885,462.3916,576.1885,466.3916" style="stroke:#181818;stroke-width:1;stroke-linejoin:miter;stroke-miterlimit:10;"/><line style="stroke:#181818;stroke-width:1;" x1="652.8967" x2="673.1191" y1="435.9141" y2="435.9141"/><polygon fill="#181818" points="669.1191,479.458,673.1191,489.458,677.1191,479.458,673.1191,483.458" style="stroke:#181818;stroke-width:1;stroke-linejoin:miter;stroke-miterlimit:10;"/><line style="stroke:#181818;stroke-width:1;" x1="673.1191" x2="673.1191" y1="435.9141" y2="538.5244"/><line style="stroke:#181818;stroke-width:1;" x1="673.1191" x2="588.1885" y1="538.5244" y2="538.5244"/><polygon fill="#181818" points="598.1885,534.5244,588.1885,538.5244,598.1885,542.5244,594.1885,538.5244" style="stroke:#181818;stroke-width:1;stroke-linejoin:miter;stroke-miterlimit:10;"/><line style="stroke:#181818;stroke-width:1;" x1="576.1885" x2="576.1885" y1="506.5244" y2="526.5244"/><polygon fill="#181818" points="572.1885,516.5244,576.1885,526.5244,580.1885,516.5244,576.1885,520.5244" style="stroke:#181818;stroke-width:1;stroke-linejoin:miter;stroke-miterlimit:10;"/><line style="stroke:#181818;stroke-width:1;" x1="576.1885" x2="576.1885" y1="403.9141" y2="423.9141"/><polygon fill="#181818" points="572.1885,413.9141,576.1885,423.9141,580.1885,413.9141,576.1885,417.9141" style="stroke:#181818;stroke-width:1;stroke-linejoin:miter;stroke-miterlimit:10;"/><line style="stroke:#181818;stroke-width:1;" x1="576.1885" x2="576.1885" y1="550.5244" y2="570.5244"/><polygon fill="#181818" points="572.1885,560.5244,576.1885,570.5244,580.1885,560.5244,576.1885,564.5244" style="stroke:#181818;stroke-width:1;stroke-linejoin:miter;stroke-miterlimit:10;"/><line style="stroke:#181818;stroke-width:1;" x1="812.3369" x2="812.3369" y1="335.6484" y2="355.6484"/><polygon fill="#181818" points="808.3369,345.6484,812.3369,355.6484,816.3369,345.6484,812.3369,349.6484" style="stroke:#181818;stroke-width:1;stroke-linejoin:miter;stroke-miterlimit:10;"/><line style="stroke:#181818;stroke-width:1;" x1="576.1885" x2="576.1885" y1="618.79" y2="640.79"/><line style="stroke:#181818;stroke-width:1;" x1="576.1885" x2="682.2627" y1="640.79" y2="640.79"/><polygon fill="#181818" points="672.2627,636.79,682.2627,640.79,672.2627,644.79,676.2627,640.79" style="stroke:#181818;stroke-width:1;stroke-linejoin:miter;stroke-miterlimit:10;"/><line style="stroke:#181818;stroke-width:1;" x1="812.3369" x2="812.3369" y1="389.7813" y2="640.79"/><line style="stroke:#181818;stroke-width:1;" x1="812.3369" x2="706.2627" y1="640.79" y2="640.79"/><polygon fill="#181818" points="716.2627,636.79,706.2627,640.79,716.2627,644.79,712.2627,640.79" style="stroke:#181818;stroke-width:1;stroke-linejoin:miter;stroke-miterlimit:10;"/><line style="stroke:#181818;stroke-width:1;" x1="694.2627" x2="694.2627" y1="652.79" y2="672.79"/><polygon fill="#181818" points="690.2627,662.79,694.2627,672.79,698.2627,662.79,694.2627,666.79" style="stroke:#181818;stroke-width:1;stroke-linejoin:miter;stroke-miterlimit:10;"/><line style="stroke:#181818;stroke-width:1;" x1="595.4092" x2="595.4092" y1="855.3213" y2="875.3213"/><polygon fill="#181818" points="591.4092,865.3213,595.4092,875.3213,599.4092,865.3213,595.4092,869.3213" style="stroke:#181818;stroke-width:1;stroke-linejoin:miter;stroke-miterlimit:10;"/><line style="stroke:#181818;stroke-width:1;" x1="789.9258" x2="789.9258" y1="855.3213" y2="875.3213"/><polygon fill="#181818" points="785.9258,865.3213,789.9258,875.3213,793.9258,865.3213,789.9258,869.3213" style="stroke:#181818;stroke-width:1;stroke-linejoin:miter;stroke-miterlimit:10;"/><line style="stroke:#181818;stroke-width:1;" x1="595.4092" x2="595.4092" y1="923.5869" y2="943.5869"/><polygon fill="#181818" points="591.4092,933.5869,595.4092,943.5869,599.4092,933.5869,595.4092,937.5869" style="stroke:#181818;stroke-width:1;stroke-linejoin:miter;stroke-miterlimit:10;"/><line style="stroke:#181818;stroke-width:1;" x1="789.9258" x2="789.9258" y1="923.5869" y2="943.5869"/><polygon fill="#181818" points="785.9258,933.5869,789.9258,943.5869,793.9258,933.5869,789.9258,937.5869" style="stroke:#181818;stroke-width:1;stroke-linejoin:miter;stroke-miterlimit:10;"/><line style="stroke:#181818;stroke-width:1;" x1="694.2627" x2="694.2627" y1="829.3213" y2="849.3213"/><polygon fill="#181818" points="690.2627,839.3213,694.2627,849.3213,698.2627,839.3213,694.2627,843.3213" style="stroke:#181818;stroke-width:1;stroke-linejoin:miter;stroke-miterlimit:10;"/><line style="stroke:#181818;stroke-width:1;" x1="694.2627" x2="694.2627" y1="949.5869" y2="969.5869"/><polygon fill="#181818" points="690.2627,959.5869,694.2627,969.5869,698.2627,959.5869,694.2627,963.5869" style="stroke:#181818;stroke-width:1;stroke-linejoin:miter;stroke-miterlimit:10;"/><line style="stroke:#181818;stroke-width:1;" x1="694.2627" x2="694.2627" y1="1022.5635" y2="1042.5635"/><polygon fill="#181818" points="690.2627,1032.5635,694.2627,1042.5635,698.2627,1032.5635,694.2627,1036.5635" style="stroke:#181818;stroke-width:1;stroke-linejoin:miter;stroke-miterlimit:10;"/><line style="stroke:#181818;stroke-width:1;" x1="118.0195" x2="118.0195" y1="267.3828" y2="272.3828"/><line style="stroke:#181818;stroke-width:1;" x1="118.0195" x2="576.1885" y1="272.3828" y2="272.3828"/><line style="stroke:#181818;stroke-width:1;" x1="576.1885" x2="576.1885" y1="272.3828" y2="287.3828"/><polygon fill="#181818" points="572.1885,277.3828,576.1885,287.3828,580.1885,277.3828,576.1885,281.3828" style="stroke:#181818;stroke-width:1;stroke-linejoin:miter;stroke-miterlimit:10;"/><line style="stroke:#181818;stroke-width:1;" x1="354.168" x2="354.168" y1="267.3828" y2="272.3828"/><line style="stroke:#181818;stroke-width:1;" x1="354.168" x2="812.3369" y1="272.3828" y2="272.3828"/><line style="stroke:#181818;stroke-width:1;" x1="812.3369" x2="812.3369" y1="272.3828" y2="287.3828"/><polygon fill="#181818" points="808.3369,277.3828,812.3369,287.3828,816.3369,277.3828,812.3369,281.3828" style="stroke:#181818;stroke-width:1;stroke-linejoin:miter;stroke-miterlimit:10;"/><line style="stroke:#181818;stroke-width:1;" x1="629.3171" x2="118.0195" y1="187.1172" y2="187.1172"/><line style="stroke:#181818;stroke-width:1;" x1="118.0195" x2="118.0195" y1="187.1172" y2="219.1172"/><polygon fill="#181818" points="114.0195,209.1172,118.0195,219.1172,122.0195,209.1172,118.0195,213.1172" style="stroke:#181818;stroke-width:1;stroke-linejoin:miter;stroke-miterlimit:10;"/><line style="stroke:#181818;stroke-width:1;" x1="759.2083" x2="771.2083" y1="187.1172" y2="187.1172"/><line style="stroke:#181818;stroke-width:1;" x1="771.2083" x2="771.2083" y1="187.1172" y2="205.1172"/><line style="stroke:#181818;stroke-width:1;" x1="771.2083" x2="354.168" y1="205.1172" y2="205.1172"/><line style="stroke:#181818;stroke-width:1;" x1="354.168" x2="354.168" y1="205.1172" y2="219.1172"/><polygon fill="#181818" points="350.168,209.1172,354.168,219.1172,358.168,209.1172,354.168,213.1172" style="stroke:#181818;stroke-width:1;stroke-linejoin:miter;stroke-miterlimit:10;"/><line style="stroke:#181818;stroke-width:1;" x1="236.0938" x2="236.0938" y1="155.1172" y2="160.1172"/><line style="stroke:#181818;stroke-width:1;" x1="236.0938" x2="694.2627" y1="160.1172" y2="160.1172"/><line style="stroke:#181818;stroke-width:1;" x1="694.2627" x2="694.2627" y1="160.1172" y2="175.1172"/><polygon fill="#181818" points="690.2627,165.1172,694.2627,175.1172,698.2627,165.1172,694.2627,169.1172" style="stroke:#181818;stroke-width:1;stroke-linejoin:miter;stroke-miterlimit:10;"/><line style="stroke:#181818;stroke-width:1;" x1="694.2627" x2="694.2627" y1="721.0557" y2="726.0557"/><line style="stroke:#181818;stroke-width:1;" x1="694.2627" x2="236.0938" y1="726.0557" y2="726.0557"/><line style="stroke:#181818;stroke-width:1;" x1="236.0938" x2="236.0938" y1="726.0557" y2="741.0557"/><polygon fill="#181818" points="232.0938,731.0557,236.0938,741.0557,240.0938,731.0557,236.0938,735.0557" style="stroke:#181818;stroke-width:1;stroke-linejoin:miter;stroke-miterlimit:10;"/><line style="stroke:#181818;stroke-width:1;" x1="236.0938" x2="236.0938" y1="775.1885" y2="780.1885"/><line style="stroke:#181818;stroke-width:1;" x1="236.0938" x2="694.2627" y1="780.1885" y2="780.1885"/><line style="stroke:#181818;stroke-width:1;" x1="694.2627" x2="694.2627" y1="780.1885" y2="795.1885"/><polygon fill="#181818" points="690.2627,785.1885,694.2627,795.1885,698.2627,785.1885,694.2627,789.1885" style="stroke:#181818;stroke-width:1;stroke-linejoin:miter;stroke-miterlimit:10;"/><line style="stroke:#181818;stroke-width:1;" x1="804.27" x2="804.27" y1="1203.0947" y2="1208.0947"/><line style="stroke:#181818;stroke-width:1;" x1="804.27" x2="346.1011" y1="1208.0947" y2="1208.0947"/><line style="stroke:#181818;stroke-width:1;" x1="346.1011" x2="346.1011" y1="1208.0947" y2="1223.0947"/><polygon fill="#181818" points="342.1011,1213.0947,346.1011,1223.0947,350.1011,1213.0947,346.1011,1217.0947" style="stroke:#181818;stroke-width:1;stroke-linejoin:miter;stroke-miterlimit:10;"/><line style="stroke:#181818;stroke-width:1;" x1="300.4458" x2="804.27" y1="1122.8291" y2="1122.8291"/><line style="stroke:#181818;stroke-width:1;" x1="804.27" x2="804.27" y1="1122.8291" y2="1154.8291"/><polygon fill="#181818" points="800.27,1144.8291,804.27,1154.8291,808.27,1144.8291,804.27,1148.8291" style="stroke:#181818;stroke-width:1;stroke-linejoin:miter;stroke-miterlimit:10;"/><line style="stroke:#181818;stroke-width:1;" x1="694.2627" x2="694.2627" y1="1090.8291" y2="1095.8291"/><line style="stroke:#181818;stroke-width:1;" x1="694.2627" x2="236.0938" y1="1095.8291" y2="1095.8291"/><line style="stroke:#181818;stroke-width:1;" x1="236.0938" x2="236.0938" y1="1095.8291" y2="1110.8291"/><polygon fill="#181818" points="232.0938,1100.8291,236.0938,1110.8291,240.0938,1100.8291,236.0938,1104.8291" style="stroke:#181818;stroke-width:1;stroke-linejoin:miter;stroke-miterlimit:10;"/><text fill="#000000" font-family="sans-serif" font-size="18" lengthAdjust="spacing" textLength="169.6113" x="151.9668" y="72.1875">Usuario / Operador</text><text fill="#000000" font-family="sans-serif" font-size="18" lengthAdjust="spacing" textLength="67.5791" x="650.9038" y="72.1875">Sistema</text><?plantuml-src ZPNFRXit4CRl-nG3v109KAD3qOk4e53zHyaXi16vGGu6X35t9B6cE0kIgzg13tc8lePFVO02zPlqIJf3hbPsOXVL7aHGmszcVlDnzHfcdcuOZk6Vht_0iSLrm2r2JR1oxM-iYoQmeSYnUWqBCYrvOpKWoa_a8D3QnXHoPEiHkA60nZxywM63CI4uX3Nv_QQ8rFbKmo5HFfIiipMAu1jOY1ILz7EAAQl8UXQqX81lgYfUMz-Wr0XnWpN_RlqQLkWYFVfbPfBTsNJx2vhhTU3MrqViEC2hqnDzdelaK5FeedxCdsUYXCwMVVszx4_wLCacHqzmdkuHddS89rtp1sJk2J5yWKnLtVqQMmoMOGnd6bzpkAi4RqZLvBstCf80aM9MkPML8sCiUzbrB6geBV1KT3h4TvLTmU3llovia-iu5F7p4DA6F0pcCZxDTyJR9k2m0dYs2839nzAG90jax5KMNElfIpyGz-o89784XhsX9l48TYZWXbELxEiHdIDqfdLP9gdDj9c1m5Yk4Wql_IruaeeG6bnZqDEJJwY4WafBVd0FzrjRuENy82p5XbB6XzddvNosk3XRdfzzNBwRvUG5mScDeUBb9b1icrQSnps5-72lhKkk3nYCf4978MMBHhxIKGPMBH8Fmi2p1fElxKhBcmikBK-44bx9h0kVA0LXP1bQpJfp7P4KL2J4AtLhIlCAFvBP_4_wfWIBkXGg04PmlHvfLsA5Z29l_mVtF9TbuYH55NFkoAU38DnqQik3qlTDTcL4wIY3U6IwYTobLcRsHU8VqSxNGYb89j4lkNueCup3wGlsdopOYVDJDaovDMDrGcnTmYTUdnp9BXUhR7bdjrRQujYddLOh3jVQpABTIeoyLOBULodd6oJxteRb28WJhJySfFwSMdM9osnLFTXDVfYXG4vtuBw_wPV-RPzR-k_KfeyYhH0rsZvfaWnelC5HcMpCow3KIuSleYlEF-MmnKmVOhv8lUlFKSRkNFRTv9ED-vbrd2Nrk5kAoVhbE0fjZxsLJsvqlxnMXj-QRfx_5EG-1REHTvD8dX-VIf5w7PryNto-A4vzmVR757FJuVbNPcy-8TJy2m00?></g></svg>